<svg width="55" height="55" viewBox="0 0 55 55" fill="none" xmlns="http://www.w3.org/2000/svg">
<rect width="55" height="55" rx="7" fill="#0056D2"/>
<path d="M7.64925 15.984H26.6893V21.264H14.7213V24.304H24.9613V29.36H14.7213V32.72H26.9133V38H7.64925V15.984ZM42.583 38L42.039 35.6C40.8017 37.456 39.0097 38.384 36.663 38.384C34.3803 38.384 32.6203 37.6373 31.383 36.144C30.1457 34.6507 29.527 32.4427 29.527 29.52C29.527 26.6187 30.1457 24.432 31.383 22.96C32.6203 21.4667 34.3803 20.72 36.663 20.72C38.6043 20.72 40.183 21.3707 41.399 22.672V14.8H47.767V38H42.583ZM38.647 25.424C36.8123 25.424 35.895 26.5227 35.895 28.72V30.416C35.895 32.592 36.8123 33.68 38.647 33.68C39.5857 33.68 40.2897 33.3493 40.759 32.688C41.2283 32.0267 41.463 31.1627 41.463 30.096V29.04C41.463 27.9733 41.2283 27.1093 40.759 26.448C40.2897 25.7653 39.5857 25.424 38.647 25.424Z" fill="white"/>
</svg>
