<svg width="171" height="55" viewBox="0 0 171 55" fill="none" xmlns="http://www.w3.org/2000/svg">
<rect width="171" height="55" rx="7" fill="#0056D2"/>
<path d="M12.6336 15.984H31.6736V21.264H19.7056V24.304H29.9456V29.36H19.7056V32.72H31.8976V38H12.6336V15.984ZM47.5674 38L47.0234 35.6C45.786 37.456 43.994 38.384 41.6474 38.384C39.3647 38.384 37.6047 37.6373 36.3674 36.144C35.13 34.6507 34.5114 32.4427 34.5114 29.52C34.5114 26.6187 35.13 24.432 36.3674 22.96C37.6047 21.4667 39.3647 20.72 41.6474 20.72C43.5887 20.72 45.1674 21.3707 46.3834 22.672V14.8H52.7514V38H47.5674ZM43.6314 25.424C41.7967 25.424 40.8794 26.5227 40.8794 28.72V30.416C40.8794 32.592 41.7967 33.68 43.6314 33.68C44.57 33.68 45.274 33.3493 45.7434 32.688C46.2127 32.0267 46.4474 31.1627 46.4474 30.096V29.04C46.4474 27.9733 46.2127 27.1093 45.7434 26.448C45.274 25.7653 44.57 25.424 43.6314 25.424ZM68.8791 38L68.4631 35.44C67.8018 36.3573 66.9271 37.0827 65.8391 37.616C64.7725 38.128 63.6418 38.384 62.4471 38.384C60.4845 38.384 59.0125 37.84 58.0311 36.752C57.0498 35.664 56.5591 34.096 56.5591 32.048V21.104H62.9271V31.28C62.9271 32.0053 63.1085 32.592 63.4711 33.04C63.8551 33.4667 64.3885 33.68 65.0711 33.68C65.8605 33.68 66.5005 33.424 66.9911 32.912C67.4818 32.4 67.7271 31.7707 67.7271 31.024V21.104H74.0951V38H68.8791ZM91.0869 21.616V38H84.0149V21.616H76.7829V15.984H98.2869V21.616H91.0869ZM107.89 20.72C110.984 20.72 113.341 21.4453 114.962 22.896C116.605 24.3467 117.426 26.5653 117.426 29.552V30.64H104.754C104.754 31.856 105.021 32.7733 105.554 33.392C106.109 34.0107 106.973 34.32 108.146 34.32C109.213 34.32 109.992 34.096 110.482 33.648C110.994 33.2 111.25 32.6027 111.25 31.856H117.426C117.426 33.904 116.648 35.504 115.09 36.656C113.533 37.808 111.261 38.384 108.274 38.384C105.138 38.384 102.706 37.6587 100.978 36.208C99.2504 34.736 98.3864 32.5173 98.3864 29.552C98.3864 26.6507 99.229 24.4533 100.914 22.96C102.6 21.4667 104.925 20.72 107.89 20.72ZM108.146 24.784C106.141 24.784 105.021 25.7333 104.786 27.632H110.994C110.994 26.7573 110.738 26.064 110.226 25.552C109.736 25.04 109.042 24.784 108.146 24.784ZM129.234 20.72C132.007 20.72 134.247 21.3173 135.954 22.512C137.682 23.6853 138.546 25.488 138.546 27.92H132.37C132.37 26 131.325 25.04 129.234 25.04C127.143 25.04 126.098 26.2453 126.098 28.656V30.48C126.098 32.8693 127.186 34.064 129.362 34.064C131.538 34.064 132.626 33.0827 132.626 31.12H138.546C138.546 33.5733 137.682 35.3973 135.954 36.592C134.247 37.7867 132.007 38.384 129.234 38.384C126.269 38.384 123.943 37.6373 122.258 36.144C120.573 34.6507 119.73 32.4533 119.73 29.552C119.73 26.6507 120.573 24.4533 122.258 22.96C123.943 21.4667 126.269 20.72 129.234 20.72ZM147.679 22.864C148.361 22.1813 149.161 21.6587 150.079 21.296C150.996 20.912 151.956 20.72 152.959 20.72C154.921 20.72 156.393 21.264 157.375 22.352C158.356 23.44 158.847 25.008 158.847 27.056V38H152.479V27.824C152.479 27.0987 152.287 26.5227 151.903 26.096C151.54 25.648 151.017 25.424 150.335 25.424C149.545 25.424 148.905 25.68 148.415 26.192C147.924 26.704 147.679 27.3333 147.679 28.08V38H141.311V14.8H147.679V22.864Z" fill="white"/>
</svg>
